<svg width="40" height="40" viewBox="0 0 40 40" fill="none" xmlns="http://www.w3.org/2000/svg">
<rect width="40" height="40" rx="8" fill="#F1F3FF"/>
<path d="M28.348 21.0816L25.0822 22.9299L22.153 20.0191L25.1055 17.0849L28.348 18.9199C28.5394 19.0282 28.6986 19.1852 28.8094 19.3751C28.9201 19.565 28.9785 19.7809 28.9785 20.0008C28.9785 20.2206 28.9201 20.4365 28.8094 20.6264C28.6986 20.8163 28.5394 20.9734 28.348 21.0816ZM11.1138 10.7699C11.052 10.9201 11.0203 11.0809 11.0205 11.2433V28.7574C11.0205 28.9383 11.058 29.1066 11.1238 29.2574L20.4197 20.0183L11.1138 10.7699ZM21.2863 19.1574L24.0013 16.4591L12.8747 10.1624C12.6362 10.0254 12.3584 9.97284 12.0863 10.0133L21.2863 19.1574ZM21.2863 20.8799L12.1197 29.9908C12.368 30.0208 12.6297 29.9774 12.8747 29.8383L23.978 23.5549L21.2863 20.8799Z" fill="#0c4079"/>
</svg>
