<svg width="40" height="40" viewBox="0 0 40 40" fill="none" xmlns="http://www.w3.org/2000/svg">
<rect width="40" height="40" rx="8" fill="#F1F3FF"/>
<path d="M26.3125 30.35C25.0875 31.5375 23.75 31.35 22.4625 30.7875C21.1 30.2125 19.85 30.1875 18.4125 30.7875C16.6125 31.5625 15.6625 31.3375 14.5875 30.35C8.48746 24.0625 9.38746 14.4875 16.3125 14.1375C18 14.225 19.175 15.0625 20.1625 15.1375C21.6375 14.8375 23.05 13.975 24.625 14.0875C26.5125 14.2375 27.9375 14.9875 28.875 16.3375C24.975 18.675 25.9 23.8125 29.475 25.25C28.7625 27.125 27.8375 28.9875 26.3 30.3625L26.3125 30.35ZM20.0375 14.0625C19.85 11.275 22.1125 8.975 24.7125 8.75C25.075 11.975 21.7875 14.375 20.0375 14.0625Z" fill="#0c4079"/>
</svg>
